<svg width="124" height="24" viewBox="0 0 124 24" fill="none" xmlns="http://www.w3.org/2000/svg">
<path d="M21.184 22.848H16.384L14.656 17.696L5.69599 20.096L4.76799 22.848H-8.29995e-06L7.83999 0.448021H13.312L21.184 22.848ZM10.592 5.53602L7.26399 15.424L13.376 13.792L10.592 5.53602ZM36.319 14.112V0.448021H40.735V22.848H37.375L27.775 9.15202V22.848H23.359V0.448021H26.719L36.319 14.112ZM52.1945 23.296C49.9972 23.296 48.1412 22.8054 46.6265 21.824C45.1118 20.8427 44.0345 19.488 43.3945 17.76L47.1705 15.552C48.0452 17.8347 49.7625 18.976 52.3225 18.976C53.5172 18.976 54.4132 18.7627 55.0105 18.336C55.6078 17.9094 55.9065 17.3334 55.9065 16.608C55.9065 15.8187 55.5545 15.2107 54.8505 14.784C54.1465 14.336 52.8878 13.856 51.0745 13.344C49.1118 12.7467 47.5652 12.0534 46.4345 11.264C45.0265 10.2187 44.3225 8.68269 44.3225 6.65602C44.3225 4.60802 45.0372 2.99735 46.4665 1.82402C47.8958 0.608021 49.6345 2.09808e-05 51.6825 2.09808e-05C53.4745 2.09808e-05 55.0638 0.437354 56.4505 1.31202C57.8372 2.18669 58.9145 3.42402 59.6825 5.02402L55.9705 7.16802C55.0745 5.24802 53.6452 4.28802 51.6825 4.28802C50.7865 4.28802 50.0718 4.50135 49.5385 4.92802C49.0052 5.33336 48.7385 5.86669 48.7385 6.52802C48.7385 7.23202 49.0265 7.80802 49.6025 8.25602C50.2425 8.70402 51.3732 9.17335 52.9945 9.66402L54.5305 10.176C54.8078 10.2614 55.2878 10.4427 55.9705 10.72C56.6105 10.9547 57.0798 11.1787 57.3785 11.392C58.4238 12.032 59.1278 12.6934 59.4905 13.376C60.0452 14.272 60.3225 15.328 60.3225 16.544C60.3225 18.6134 59.5652 20.256 58.0505 21.472C56.5358 22.688 54.5838 23.296 52.1945 23.296ZM82.059 22.848H77.259L75.531 17.696L66.571 20.096L65.643 22.848H60.875L68.715 0.448021H74.187L82.059 22.848ZM71.467 5.53602L68.139 15.424L74.251 13.792L71.467 5.53602ZM101.29 22.848H96.522L92.01 15.072H88.65V22.848H84.234V0.448021H93.194C95.2633 0.448021 97.0233 1.17335 98.474 2.62402C99.9247 4.07469 100.65 5.82402 100.65 7.87202C100.65 9.25869 100.255 10.5494 99.466 11.744C98.6767 12.9174 97.6313 13.8027 96.33 14.4L101.29 22.848ZM93.194 4.57602H88.65V11.2H93.194C94.026 11.2 94.7407 10.88 95.338 10.24C95.9353 9.57869 96.234 8.78936 96.234 7.87202C96.234 6.95469 95.9353 6.17602 95.338 5.53602C94.7407 4.89602 94.026 4.57602 93.194 4.57602ZM123.09 22.848H118.29L116.562 17.696L107.602 20.096L106.674 22.848H101.906L109.746 0.448021H115.218L123.09 22.848ZM112.498 5.53602L109.17 15.424L115.282 13.792L112.498 5.53602Z" fill="white"/>
</svg>
